<?xml version="1.0" encoding="utf-8"?>
<!-- Generator: Adobe Illustrator 16.0.0, SVG Export Plug-In . SVG Version: 6.00 Build 0)  -->
<!DOCTYPE svg PUBLIC "-//W3C//DTD SVG 1.1//EN" "http://www.w3.org/Graphics/SVG/1.1/DTD/svg11.dtd">
<svg version="1.1" id="Layer_1" xmlns="http://www.w3.org/2000/svg" xmlns:xlink="http://www.w3.org/1999/xlink" x="0px" y="0px"
	 width="177.181px" height="44.906px" viewBox="-628.061 435.734 177.181 44.906"
	 enable-background="new -628.061 435.734 177.181 44.906" xml:space="preserve">
<g>
	<path fill="#FFFFFF" d="M-576.7,472.541c-3.673,3.674-8.748,5.945-14.353,5.945c-5.606,0-10.681-2.271-14.354-5.945
		c-2.192-2.191-3.885-4.884-4.894-7.89h-2.261c1.081,3.603,3.042,6.823,5.632,9.413c4.064,4.063,9.677,6.576,15.877,6.576
		c6.2,0,11.813-2.514,15.876-6.576c2.591-2.59,4.552-5.811,5.633-9.413h-2.261C-572.814,467.657-574.508,470.349-576.7,472.541"/>
	<path fill="#FFFFFF" d="M-591.053,470.751c6.938,0,12.562-5.625,12.562-12.563c0-6.938-5.624-12.562-12.562-12.562
		s-12.563,5.624-12.563,12.562C-603.616,465.126-597.991,470.751-591.053,470.751 M-591.055,449.285
		c4.942,0,8.949,4.007,8.949,8.949c0,4.941-4.007,8.949-8.949,8.949c-4.942,0-8.948-4.008-8.948-8.949
		C-600.003,453.292-595.997,449.285-591.055,449.285"/>
	<path fill="#FFFFFF" d="M-591.055,465.571c4.052,0,7.337-3.285,7.337-7.337c0-4.053-3.285-7.338-7.337-7.338
		c-4.053,0-7.338,3.285-7.338,7.338C-598.393,462.286-595.107,465.571-591.055,465.571 M-589.646,462.095h-2.819l0.635-2.287
		c-0.531-0.286-0.89-0.846-0.89-1.493c0-0.938,0.76-1.698,1.698-1.698c0.937,0,1.697,0.76,1.697,1.698
		c0,0.668-0.386,1.247-0.947,1.522L-589.646,462.095z M-591.055,451.959c3.394,0,6.159,2.695,6.271,6.063h-3.438
		c-0.108-1.469-1.335-2.629-2.833-2.629c-1.57,0-2.842,1.272-2.842,2.842c0,0.479,0.118,0.929,0.327,1.324l-2.247,2.761
		c-0.943-1.097-1.513-2.524-1.513-4.085C-597.33,454.767-594.521,451.959-591.055,451.959"/>
	<path fill="#FFFFFF" d="M-618.888,454.885c0.756,0,1.418-0.402,1.783-1.006h4.012h2.199c0.159-0.734,0.358-1.453,0.593-2.154
		c1.009-3.006,2.702-5.697,4.894-7.89c3.673-3.674,8.748-5.946,14.354-5.946c5.605,0,10.68,2.272,14.353,5.946
		c2.192,2.192,3.886,4.884,4.895,7.89c0.235,0.701,0.433,1.42,0.592,2.154h2.2h4.012c0.364,0.604,1.027,1.006,1.783,1.006
		c1.15,0,2.082-0.934,2.082-2.083s-0.932-2.083-2.082-2.083c-0.756,0-1.419,0.403-1.783,1.006h-4.543
		c-1.081-3.602-3.042-6.822-5.633-9.412c-4.063-4.063-9.676-6.578-15.876-6.578s-11.814,2.515-15.877,6.578
		c-2.59,2.59-4.551,5.811-5.632,9.412h-4.543c-0.365-0.603-1.027-1.006-1.783-1.006c-1.15,0-2.082,0.934-2.082,2.083
		S-620.038,454.885-618.888,454.885 M-563.182,451.826c0.521,0,0.943,0.423,0.943,0.943c0,0.521-0.422,0.943-0.943,0.943
		s-0.943-0.422-0.943-0.943C-564.125,452.249-563.703,451.826-563.182,451.826 M-618.948,451.826c0.521,0,0.943,0.423,0.943,0.943
		c0,0.521-0.422,0.943-0.943,0.943s-0.943-0.422-0.943-0.943C-619.891,452.249-619.469,451.826-618.948,451.826"/>
	<path fill="#FFFFFF" d="M-556.128,455.028c-0.757,0-1.419,0.403-1.784,1.005h-16.437c-0.094-0.734-0.235-1.453-0.42-2.154
		c-0.195-0.738-0.439-1.459-0.729-2.154c-0.853-2.051-2.101-3.897-3.647-5.444c-3.048-3.048-7.258-4.933-11.908-4.933
		s-8.861,1.885-11.908,4.933c-1.547,1.547-2.794,3.394-3.648,5.444c-0.289,0.695-0.533,1.416-0.728,2.154
		c-0.186,0.701-0.326,1.42-0.42,2.154h-16.438c-0.365-0.602-1.027-1.005-1.783-1.005c-1.15,0-2.083,0.933-2.083,2.082
		c0,1.151,0.933,2.083,2.083,2.083c0.756,0,1.418-0.403,1.783-1.005h16.301h2.155c0-0.732,0.053-1.452,0.156-2.155
		c0.109-0.736,0.272-1.457,0.486-2.154c0.228-0.744,0.514-1.465,0.853-2.154c0.716-1.459,1.668-2.784,2.806-3.922
		c2.658-2.657,6.329-4.301,10.385-4.301c4.055,0,7.727,1.644,10.384,4.301c1.138,1.138,2.09,2.463,2.807,3.922
		c0.338,0.689,0.624,1.41,0.852,2.154c0.214,0.697,0.378,1.418,0.486,2.154c0.103,0.703,0.157,1.423,0.157,2.155h2.154h16.301
		c0.365,0.602,1.027,1.005,1.784,1.005c1.15,0,2.082-0.932,2.082-2.083C-554.046,455.961-554.978,455.028-556.128,455.028
		 M-626.002,458.082c-0.521,0-0.943-0.422-0.943-0.943c0-0.521,0.422-0.942,0.943-0.942s0.943,0.422,0.943,0.942
		C-625.059,457.66-625.481,458.082-626.002,458.082 M-556.128,458.082c-0.521,0-0.943-0.422-0.943-0.943
		c0-0.521,0.422-0.942,0.943-0.942c0.521,0,0.943,0.422,0.943,0.942C-555.185,457.66-555.606,458.082-556.128,458.082"/>
	<path fill="#FFFFFF" d="M-563.218,459.336c-0.756,0-1.418,0.404-1.783,1.007h-9.348h-2.175c-0.108,0.737-0.271,1.457-0.485,2.153
		c-0.229,0.746-0.514,1.467-0.853,2.155c-0.716,1.46-1.669,2.783-2.806,3.921c-2.658,2.658-6.329,4.303-10.385,4.303
		c-4.055,0-7.727-1.645-10.385-4.303c-1.138-1.138-2.089-2.461-2.806-3.921c-0.339-0.688-0.624-1.409-0.853-2.155
		c-0.214-0.696-0.377-1.416-0.485-2.153h-2.175h-9.348c-0.365-0.603-1.027-1.007-1.782-1.007c-1.151,0-2.083,0.934-2.083,2.084
		c0,1.149,0.932,2.082,2.083,2.082c0.755,0,1.417-0.402,1.782-1.006h4.012h2.199h3.557c0.195,0.74,0.439,1.459,0.728,2.155
		c0.854,2.052,2.101,3.897,3.648,5.444c3.048,3.048,7.258,4.934,11.908,4.934c4.65,0,8.86-1.886,11.908-4.934
		c1.547-1.547,2.794-3.393,3.648-5.444c0.289-0.696,0.533-1.415,0.728-2.155h3.556h2.2h4.012c0.365,0.604,1.027,1.006,1.783,1.006
		c1.15,0,2.082-0.933,2.082-2.082C-561.136,460.269-562.068,459.336-563.218,459.336 M-618.948,462.319
		c-0.521,0-0.943-0.422-0.943-0.942c0-0.521,0.422-0.943,0.943-0.943c0.521,0,0.943,0.422,0.943,0.943
		C-618.005,461.897-618.427,462.319-618.948,462.319 M-563.182,462.319c-0.521,0-0.943-0.422-0.943-0.942
		c0-0.521,0.422-0.943,0.943-0.943s0.943,0.422,0.943,0.943C-562.239,461.897-562.661,462.319-563.182,462.319"/>
	<polygon fill="#FFFFFF" points="-524.381,446.5 -524.381,472.367 -529.296,472.367 -542.193,456.662 -542.193,472.367 
		-548.106,472.367 -548.106,446.5 -543.154,446.5 -530.294,462.205 -530.294,446.5 	"/>
	<polygon fill="#FFFFFF" points="-506.015,472.367 -510.376,466.269 -514.884,472.367 -521.167,472.367 -513.517,462.353 
		-520.908,452.486 -514.441,452.486 -510.228,458.288 -505.904,452.486 -499.77,452.486 -507.161,462.205 -499.474,472.367 	"/>
	<path fill="#FFFFFF" d="M-483.843,471.406c-0.567,0.42-1.263,0.734-2.088,0.943c-0.826,0.209-1.694,0.313-2.605,0.313
		c-2.366,0-4.195-0.603-5.488-1.81c-1.294-1.207-1.94-2.981-1.94-5.322v-8.166h-3.067v-4.436h3.067v-4.841h5.765v4.841h4.951v4.436
		h-4.951v8.092c0,0.838,0.215,1.484,0.646,1.941c0.431,0.455,1.041,0.683,1.83,0.683c0.911,0,1.687-0.246,2.328-0.739
		L-483.843,471.406z"/>
	<polygon fill="#FFFFFF" points="-474.198,451.303 -474.198,458.14 -462.225,458.14 -462.225,462.945 -474.198,462.945 
		-474.198,472.368 -480.185,472.368 -480.185,446.5 -460.636,446.5 -460.636,451.303 	"/>
	<path fill="#FFFFFF" d="M-457.051,448.791c-0.665-0.615-0.998-1.379-0.998-2.291s0.333-1.676,0.998-2.291
		c0.665-0.617,1.527-0.924,2.587-0.924c1.059,0,1.921,0.295,2.587,0.887c0.665,0.591,0.997,1.33,0.997,2.217
		c0,0.961-0.332,1.756-0.997,2.383c-0.666,0.629-1.528,0.943-2.587,0.943C-455.523,449.715-456.386,449.406-457.051,448.791
		 M-457.347,452.486h5.765v19.881h-5.765V452.486z"/>
</g>
</svg>
