<?xml version="1.0" encoding="UTF-8"?> <svg xmlns="http://www.w3.org/2000/svg" xmlns:xlink="http://www.w3.org/1999/xlink" version="1.1" id="Layer_1" x="0px" y="0px" width="813px" height="813px" viewBox="0 0 813 813" xml:space="preserve"> <rect fill="#030104" width="813" height="813"></rect> <g> <g> <g> <linearGradient id="SVGID_1_" gradientUnits="userSpaceOnUse" x1="170.9121" y1="357.75" x2="572.8398" y2="357.75"> <stop offset="0" style="stop-color:#50A6A8"></stop> <stop offset="1" style="stop-color:#80BBCF"></stop> </linearGradient> <path fill="url(#SVGID_1_)" d="M354.22,614.141c-53.277,0-106.544-0.001-159.821-0.003c-15.798,0-23.479-7.682-23.481-23.483 c-0.008-155.238-0.008-310.475,0-465.711c0-15.867,7.646-23.58,23.375-23.581l285.658-0.003h0.003c0.011,0,0.014,0,0.021,0 c0.014,0,0.017,0,0.027,0c0.008,0,0.016,0,0.025,0l0,0c1.097,0.01,2.144,0.231,3.098,0.627c0.005,0.002,0.008,0.001,0.012,0.004 c0.926,0.383,1.798,0.941,2.564,1.674c0.006,0.005,0.008,0.009,0.014,0.014c0.003,0.001,0.003,0.001,0.003,0.002 c0.043,0.042,0.085,0.083,0.128,0.125c9.289,9.278,25.851,25.987,41.868,42.143c16.029,16.169,32.6,32.887,41.969,42.243 c0.185,0.183,0.361,0.372,0.529,0.572c0.003,0.002,0.006,0.005,0.008,0.008c0.783,0.933,1.331,1.998,1.644,3.114 c0.064,0.214,0.12,0.378,0.163,0.51c0.232,0.691,0.62,1.849,0.62,3.402c0.034,10.613,0.062,21.251,0.075,31.891 c0.007,4.595-3.715,8.325-8.309,8.332c-0.002,0-0.008,0-0.013,0c-4.589,0-8.312-3.717-8.319-8.308 c-0.011-8.424-0.029-16.847-0.054-25.271c-4.246,0.002-8.489,0.004-12.732,0.008c-11.371,0.01-22.74,0.02-34.107-0.022 c-21.627-0.08-37.414-15.824-37.534-37.437c-0.067-12.6-0.051-24.948-0.035-38.021c0.004-2.976,0.009-5.963,0.011-8.969 l-277.335,0.002c-6.167,0.001-6.737,0.194-6.737,6.942c-0.006,155.236-0.008,310.473,0,465.71c0,6.588,0.256,6.844,6.841,6.844 c118.36,0.006,236.717,0.006,355.072-0.002c6.054,0,6.609-0.56,6.609-6.663c0.007-29.731,0.007-59.464,0.007-89.195l0.003-71.359 c0-0.395-0.013-0.791-0.021-1.188c-0.037-1.468-0.085-3.294,0.238-5.284c0.74-4.534,5.021-7.604,9.551-6.874 c4.535,0.739,7.613,5.013,6.872,9.55c-0.072,0.447-0.05,1.328-0.029,2.179c0.017,0.541,0.029,1.082,0.029,1.619l-0.005,71.358 c0,29.732,0,59.465-0.005,89.198c-0.003,15.243-8.043,23.3-23.249,23.3C484.391,614.139,419.3,614.141,354.22,614.141z M488.255,129.798c-0.014,12.013-0.022,23.463,0.04,35.101c0.068,12.447,8.491,20.843,20.955,20.889 c11.344,0.041,22.688,0.03,34.032,0.023c0.179,0,0.357,0,0.536,0c-8.374-8.43-18.247-18.387-27.92-28.147 C506.318,148,496.547,138.142,488.255,129.798z"></path> </g> <g> <linearGradient id="SVGID_2_" gradientUnits="userSpaceOnUse" x1="315.6094" y1="414.6934" x2="642.0879" y2="414.6934"> <stop offset="0" style="stop-color:#50A6A8"></stop> <stop offset="1" style="stop-color:#80BBCF"></stop> </linearGradient> <path fill="url(#SVGID_2_)" d="M493.426,577.86c-6.783,0.002-13.581-2.493-19.124-7.517c-3.677-3.331-7.137-6.848-10.48-10.248 c-1.239-1.258-2.477-2.518-3.724-3.765c-44.384-44.377-88.764-88.758-133.14-133.139c-8.099-8.101-11.895-16.611-11.285-25.297 c0.613-8.712,5.593-16.639,14.8-23.565c23.329-17.55,54.92-16.334,76.82,2.954c1.063,0.936,2.086,1.874,3.111,2.832 c10.907-5.342,22.36-6.186,34.121-2.493c1.213,0.38,2.475,0.674,3.812,0.732c1.424-0.361,2.818-0.557,4.152-0.634 c2.159-0.772,4.53-2.322,7.188-5.084c15.352-15.936,24.413-33.965,27.703-55.12c5.571-35.84,35.318-63.521,70.731-65.817 c37.091-2.404,70.259,20.295,80.736,55.184c6.436,21.438,3.188,44.696-8.908,63.814c-12.105,19.131-31.76,32.036-53.923,35.404 c-21.338,3.242-39.344,12.274-55.047,27.612c-5.519,5.391-6.916,10.203-4.829,16.611c3.624,11.131,2.638,22.426-2.838,32.792 c20.621,21.723,24.11,51.218,8.813,75.504c-2.383,3.788-5.234,7.367-8.468,10.637C507.986,574.979,500.715,577.86,493.426,577.86 z M367.103,378.63c-9.299,0-18.631,2.982-26.626,8.998c-3.565,2.682-7.88,6.84-8.204,11.435 c-0.322,4.565,3.332,9.243,6.451,12.364c44.375,44.381,88.757,88.762,133.139,133.137c1.28,1.281,2.55,2.572,3.821,3.862 c3.328,3.382,6.47,6.576,9.791,9.588c4.855,4.397,11.729,4.204,16.347-0.46c2.349-2.373,4.497-5.069,6.213-7.797 c11.439-18.162,8.552-39.599-7.541-55.95c-1.962-1.994-7.935-8.063-2.533-17.323c3.914-6.717,4.711-13.785,2.359-21.006 c-0.358-1.097-0.66-2.186-0.909-3.266c-0.323-0.24-0.633-0.506-0.921-0.796l-57.496-57.494c-0.48-0.13-0.964-0.271-1.449-0.422 c-9.154-2.87-17.368-1.646-25.855,3.857c-3.201,2.077-7.407,1.706-10.197-0.894c-0.874-0.813-1.713-1.606-2.533-2.384 c-1.611-1.525-3.135-2.967-4.658-4.306C387.891,382.37,377.517,378.63,367.103,378.63z M467.36,396.757l28.12,28.118 c-0.594-10.979,3.688-21.247,12.657-30.128c16.646-16.477,36.911-26.701,60.236-30.387c16.114-2.546,27.805-14.783,29.782-31.175 c1.887-15.623-7.067-30.786-21.781-36.875c-14.588-6.034-31.746-1.372-41.721,11.34c-3.782,4.82-6.06,10.825-7.613,20.073 c-3.649,21.734-14.061,41.146-30.943,57.696C487.781,393.568,477.982,397.399,467.36,396.757z M563.185,277.063 c6.598,0,13.233,1.257,19.553,3.872c21.587,8.935,34.721,31.24,31.938,54.246c-2.894,23.973-20.049,41.877-43.707,45.616 c-20.084,3.175-36.81,11.605-51.124,25.776c-4.066,4.026-6.511,8.034-7.412,12.32c17.39-15.892,37.918-25.723,61.083-29.24 c17.396-2.645,32.836-12.796,42.363-27.852c9.516-15.044,12.081-33.314,7.033-50.131c-8.366-27.863-33.988-45.311-63.723-43.365 c-27.697,1.795-50.981,23.567-55.367,51.769c-3.423,22.012-12.618,41.776-27.36,58.848c2.787-1.086,5.427-2.876,7.987-5.385 c14.521-14.234,23.085-30.122,26.182-48.57c1.357-8.09,3.83-18.535,10.933-27.588 C531.837,284.286,547.384,277.063,563.185,277.063z M501.688,548.904c-2.128,0-4.258-0.812-5.88-2.435 c-15.403-15.391-30.795-30.789-46.189-46.187l-58.61-58.607c-13.345-13.34-26.69-26.68-40.033-40.023 c-3.248-3.249-3.248-8.518,0.001-11.767c3.25-3.248,8.518-3.247,11.768,0.001c13.34,13.344,26.685,26.683,40.03,40.021 l58.613,58.612c15.392,15.396,30.781,30.791,46.182,46.179c3.249,3.248,3.252,8.518,0.005,11.767 C505.95,548.091,503.817,548.904,501.688,548.904z"></path> </g> <g> <linearGradient id="SVGID_3_" gradientUnits="userSpaceOnUse" x1="217.7188" y1="523.207" x2="452.9136" y2="523.207"> <stop offset="0" style="stop-color:#50A6A8"></stop> <stop offset="1" style="stop-color:#80BBCF"></stop> </linearGradient> <path fill="url(#SVGID_3_)" d="M444.598,562.614c-0.676,0-1.359-0.083-2.044-0.257c-0.98-0.248-2.601-0.256-4.169-0.246h-0.431 c-54.462-0.019-108.926-0.019-163.39-0.02h-32.679c-17.613,0-24.163-6.617-24.164-24.416l-0.001-7.719 c-0.002-7.723-0.004-15.445,0.002-23.169c0.015-16.091,6.891-22.958,22.994-22.962l30.676-0.002c29.743,0,59.485,0,89.227-0.023 c0.002,0,0.003,0,0.006,0c4.593,0,8.315,3.721,8.32,8.313c0.003,4.595-3.719,8.322-8.314,8.327 c-29.746,0.023-59.493,0.023-89.24,0.023l-30.674,0.001c-3.888,0.001-5.313,0.438-5.734,0.62 c-0.182,0.423-0.618,1.841-0.621,5.719c-0.007,7.717-0.006,15.432-0.003,23.148l0.001,7.72c0,4.81,0.436,6.571,0.653,7.152 c0.568,0.212,2.276,0.627,6.871,0.627h32.679c54.467,0.001,108.93,0.001,163.398,0.021h0.414 c2.344,0.002,5.262-0.004,8.255,0.753c4.454,1.127,7.153,5.65,6.025,10.105C451.706,560.101,448.317,562.613,444.598,562.614z"></path> </g> <g> <linearGradient id="SVGID_4_" gradientUnits="userSpaceOnUse" x1="245.29" y1="523.207" x2="399.1406" y2="523.207"> <stop offset="0" style="stop-color:#50A6A8"></stop> <stop offset="1" style="stop-color:#80BBCF"></stop> </linearGradient> <path fill="url(#SVGID_4_)" d="M390.822,531.527c0,0,0,0-0.003,0l-85.948-0.001l-51.26,0.001c-4.595,0-8.321-3.725-8.321-8.319 s3.724-8.321,8.319-8.321l85.565-0.001l51.648,0.001c4.597,0,8.318,3.727,8.318,8.321 C399.141,527.802,395.415,531.527,390.822,531.527z"></path> </g> <g> <linearGradient id="SVGID_5_" gradientUnits="userSpaceOnUse" x1="202.2671" y1="157.6602" x2="343.3574" y2="157.6602"> <stop offset="0" style="stop-color:#50A6A8"></stop> <stop offset="1" style="stop-color:#80BBCF"></stop> </linearGradient> <path fill="url(#SVGID_5_)" d="M212.275,166.001c-0.68,0-1.405-0.01-2.161-0.053c-4.588-0.262-8.096-4.192-7.833-8.78 c0.261-4.588,4.242-8.104,8.78-7.833c0.694,0.038,1.393,0.027,2.096,0.021l4.822-0.005c39.665-0.002,72.198,0.002,117.058-0.004 c4.595-0.002,8.321,3.723,8.321,8.317c0.001,4.596-3.723,8.321-8.319,8.321c-44.857,0.008-77.393,0.005-117.06,0.005 l-4.679,0.005C212.972,165.999,212.629,166.001,212.275,166.001z"></path> </g> <g> <linearGradient id="SVGID_6_" gradientUnits="userSpaceOnUse" x1="202.2671" y1="186.9443" x2="343.3574" y2="186.9443"> <stop offset="0" style="stop-color:#50A6A8"></stop> <stop offset="1" style="stop-color:#80BBCF"></stop> </linearGradient> <path fill="url(#SVGID_6_)" d="M212.275,195.284c-0.68,0-1.405-0.011-2.161-0.054c-4.588-0.262-8.096-4.192-7.833-8.78 c0.261-4.587,4.242-8.081,8.78-7.833c0.694,0.04,1.393,0.027,2.096,0.021l4.822-0.006c39.665,0,72.198,0.002,117.058-0.003 c4.595-0.002,8.321,3.723,8.321,8.318c0.001,4.595-3.723,8.321-8.319,8.321c-44.857,0.007-77.393,0.004-117.06,0.004 l-4.679,0.005C212.972,195.281,212.629,195.284,212.275,195.284z"></path> </g> </g> <g> <path fill="#50A6A8" d="M267.422,646.277v65.228h-7.231l-32.614-49.199v49.199h-8.292v-65.228h7.229l32.616,49.198v-49.198 H267.422z"></path> <path fill="#50A6A8" d="M322.843,688.194c0,3.507-0.574,6.719-1.719,9.634c-1.146,2.915-2.698,5.427-4.652,7.534 c-1.955,2.106-4.265,3.741-6.928,4.904c-2.663,1.163-5.479,1.744-8.444,1.744c-2.966,0-5.781-0.581-8.444-1.744 c-2.663-1.163-4.981-2.798-6.954-4.904c-1.972-2.107-3.522-4.61-4.651-7.509c-1.13-2.899-1.694-6.118-1.694-9.659 c0-3.505,0.563-6.707,1.694-9.606c1.129-2.899,2.679-5.402,4.651-7.51c1.972-2.106,4.291-3.75,6.954-4.93 c2.663-1.18,5.478-1.77,8.444-1.77c2.966,0,5.782,0.59,8.444,1.77c2.663,1.18,4.973,2.823,6.928,4.93 c1.955,2.107,3.506,4.61,4.652,7.51C322.269,681.487,322.843,684.689,322.843,688.194z M287.093,688.194 c0,2.496,0.379,4.763,1.138,6.803c0.757,2.038,1.794,3.783,3.109,5.233c1.315,1.449,2.823,2.57,4.525,3.361 c1.702,0.793,3.447,1.189,5.233,1.189s3.522-0.396,5.208-1.189c1.687-0.791,3.169-1.912,4.451-3.361 c1.28-1.45,2.317-3.195,3.109-5.233c0.792-2.04,1.189-4.307,1.189-6.803c0-2.493-0.397-4.752-1.189-6.775 c-0.792-2.022-1.829-3.759-3.109-5.208c-1.281-1.448-2.764-2.571-4.451-3.363c-1.686-0.791-3.421-1.188-5.208-1.188 s-3.531,0.396-5.233,1.188c-1.702,0.792-3.21,1.915-4.525,3.363c-1.315,1.449-2.352,3.186-3.109,5.208 C287.472,683.442,287.093,685.701,287.093,688.194z"></path> <path fill="#50A6A8" d="M337.81,652.496h6.726v12.389h10.366v7.28h-10.366v24.323c0,2.629,0.707,4.669,2.124,6.118 c1.416,1.449,3.303,2.175,5.664,2.175c0.673,0,1.297-0.068,1.871-0.203c0.27-0.067,0.505-0.169,0.708-0.304v6.727 c-0.338,0.202-0.708,0.37-1.113,0.504c-0.91,0.337-2.089,0.506-3.539,0.506c-1.788,0-3.489-0.378-5.107-1.137 s-3.052-1.812-4.298-3.16c-1.248-1.348-2.234-2.966-2.958-4.855c-0.726-1.886-1.088-4.011-1.088-6.37v-24.323h-8.292v-7.28h3.641 c3.808,0,5.696-1.888,5.663-5.664V652.496z"></path> <path fill="#50A6A8" d="M382.865,664.379c2.562,0,4.929,0.43,7.104,1.289c2.174,0.86,4.036,2.014,5.587,3.465 c1.55,1.448,2.756,3.143,3.616,5.08c0.858,1.938,1.289,4.021,1.289,6.245v31.047h-5.664l-2.073-5.157 c-1.045,1.112-2.225,2.073-3.539,2.883c-1.18,0.775-2.629,1.434-4.349,1.973c-1.719,0.537-3.759,0.808-6.118,0.808 c-2.36,0-4.484-0.362-6.372-1.087c-1.889-0.724-3.507-1.727-4.854-3.008c-1.35-1.282-2.403-2.764-3.162-4.449 c-0.757-1.687-1.137-3.49-1.137-5.412c0-2.224,0.446-4.247,1.34-6.067c0.893-1.82,2.444-3.403,4.651-4.753 c2.208-1.348,5.234-2.385,9.079-3.109c3.842-0.725,8.663-1.088,14.46-1.088v-2.579c0-2.359-0.918-4.415-2.755-6.168 c-1.838-1.754-4.206-2.63-7.104-2.63c-2.9,0-5.041,0.598-6.422,1.795c-1.383,1.197-2.344,2.84-2.883,4.93h-8.293 c0.271-1.921,0.861-3.732,1.771-5.436c0.91-1.702,2.106-3.192,3.59-4.474c1.483-1.282,3.236-2.284,5.259-3.01 C377.909,664.742,380.236,664.379,382.865,664.379z M378.719,704.781c2.056,0,3.952-0.329,5.688-0.986 c1.735-0.657,3.21-1.501,4.425-2.529c1.214-1.027,2.165-2.182,2.856-3.463c0.69-1.282,1.036-2.579,1.036-3.894v-3.642 c-4.686,0-8.444,0.195-11.275,0.582c-2.831,0.389-5.031,0.944-6.6,1.668c-1.567,0.726-2.604,1.585-3.108,2.579 c-0.507,0.996-0.759,2.15-0.759,3.465c0,1.585,0.699,3.017,2.098,4.297C374.479,704.141,376.358,704.781,378.719,704.781z"></path> <path fill="#50A6A8" d="M435.656,672.165h-2.073c-3.676,0-6.659,1.172-8.951,3.516s-3.438,5.486-3.438,9.43v26.395h-7.788v-46.62 h5.715l2.073,5.208c0.977-1.045,2.106-1.973,3.388-2.781c1.18-0.775,2.596-1.458,4.247-2.048c1.652-0.59,3.591-0.885,5.814-0.885 h1.013V672.165z"></path> <path fill="#4CA9D6" d="M458.959,711.505h-15.018v-65.24h15.018V711.505z"></path> <path fill="#4CA9D6" d="M471.384,646.265h22.266c4.558,0,8.803,0.846,12.738,2.537s7.387,4.022,10.355,6.989 c2.967,2.97,5.297,6.421,6.99,10.356c1.691,3.935,2.537,8.181,2.537,12.737c0,4.558-0.846,8.802-2.537,12.738 c-1.693,3.935-4.023,7.388-6.99,10.355c-2.969,2.969-6.42,5.3-10.355,6.989c-3.936,1.693-8.181,2.537-12.738,2.537h-22.266 V646.265z M493.649,697.008c2.487,0,4.798-0.466,6.938-1.397c2.14-0.933,4.003-2.192,5.593-3.78 c1.588-1.588,2.83-3.486,3.729-5.696c0.896-2.208,1.347-4.624,1.347-7.249c0-2.554-0.451-4.953-1.347-7.197 c-0.898-2.243-2.141-4.158-3.729-5.747c-1.59-1.588-3.453-2.848-5.593-3.78c-2.141-0.933-4.451-1.396-6.938-1.396h-7.248v36.244 H493.649z"></path> </g> </g> </svg> 